<svg id="Capa_1" enable-background="new 0 0 512 512" height="512" viewBox="0 0 512 512" width="512" xmlns="http://www.w3.org/2000/svg"><g><path stroke="#4b3939" fill="#4b3939" stroke-width="6" d="m256 0c-141.385 0-256 114.615-256 256 0 86.115 42.931 165.957 114.84 213.577 3.452 2.286 8.107 1.342 10.394-2.112s1.342-8.107-2.112-10.394c-28.066-18.586-51.437-42.389-69.19-69.659 39.624-2.078 78.463-13.345 113.072-32.905 21.555-12.182 41.14-27.461 58.22-45.225-6.845 23.675-10.261 48.284-10.034 73.045.365 39.735 10.018 78.988 28.016 114.33-33.214-1.712-65.084-10.095-94.901-25.016-3.704-1.853-8.21-.353-10.063 3.351-1.854 3.705-.354 8.21 3.351 10.063 35.729 17.879 74.221 26.945 114.407 26.945 141.385 0 256-114.615 256-256s-114.615-256-256-256zm201.925 124.597c-39.574 2.097-78.362 13.361-112.929 32.897-21.555 12.182-41.14 27.461-58.219 45.225 6.845-23.675 10.261-48.284 10.034-73.044-.365-39.736-10.019-78.99-28.018-114.334 79.136 4.159 148.269 46.676 189.132 109.256zm-.376 15.039c-41.863 63.68-111.905 104.117-187.881 108.473 41.76-63.619 111.801-104.059 187.881-108.473zm-201.549 100.581c-34.215-67.974-34.217-148.851 0-216.945 34.217 68.094 34.215 148.971 0 216.945zm201.549 132.147c-76.08-4.414-146.121-44.854-187.881-108.473 75.976 4.356 146.018 44.793 187.881 108.473zm-215.217-124.256c-75.975-4.355-146.017-44.792-187.88-108.473 76.079 4.415 146.12 44.855 187.88 108.473zm.875-232.768c-17.999 35.344-27.653 74.598-28.017 114.333-.227 24.76 3.189 49.37 10.034 73.045-17.08-17.763-36.665-33.042-58.22-45.225-34.567-19.536-73.354-30.8-112.929-32.897 40.863-62.579 109.995-105.096 189.132-109.256zm-202.037 349.985c-16.967-33.332-26.17-70.655-26.17-109.325 0-39.303 9.461-76.436 26.219-109.249 21.608 33.251 50.75 61.248 84.974 81.428 21.314 12.568 44.317 21.91 68.223 27.82-23.907 5.91-46.909 15.252-68.223 27.82-34.25 20.197-63.41 48.221-85.023 81.506zm13.281 7.039c41.863-63.68 111.906-104.117 187.88-108.473-41.759 63.619-111.8 104.059-187.88 108.473zm201.549-100.581c34.215 67.974 34.217 148.851 0 216.945-34.217-68.094-34.215-148.971 0-216.945zm12.793 224.877c17.999-35.344 27.653-74.598 28.018-114.334.227-24.76-3.189-49.37-10.034-73.044 17.08 17.763 36.665 33.042 58.219 45.225 34.567 19.536 73.355 30.8 112.929 32.897-40.863 62.579-109.996 105.096-189.132 109.256zm117.015-212.84c-21.315-12.568-44.317-21.91-68.224-27.82 23.907-5.91 46.909-15.252 68.224-27.82 34.223-20.18 63.365-48.177 84.973-81.429 16.758 32.812 26.219 69.946 26.219 109.249s-9.461 76.437-26.219 109.249c-21.609-33.252-50.75-61.249-84.973-81.429z"/></g></svg>