<?xml version="1.0" encoding="iso-8859-1"?>
<!-- Generator: Adobe Illustrator 16.0.0, SVG Export Plug-In . SVG Version: 6.00 Build 0)  -->
<!DOCTYPE svg PUBLIC "-//W3C//DTD SVG 1.1//EN" "http://www.w3.org/Graphics/SVG/1.1/DTD/svg11.dtd">
<svg version="1.1" id="Capa_1" xmlns="http://www.w3.org/2000/svg" xmlns:xlink="http://www.w3.org/1999/xlink" x="0px" y="0px"
	 width="99.15px" height="99.15px" viewBox="0 0 99.15 99.15" style="enable-background:new 0 0 99.15 99.15;" xml:space="preserve"
	>
<g>
	<g>
		<path stroke="#4b3939" fill="#4b3939" d="M84.629,14.52C75.266,5.157,62.816,0.001,49.574,0.001S23.883,5.157,14.519,14.52C5.156,23.884,0,36.333,0,49.575
			S5.156,75.267,14.52,84.63c9.363,9.362,21.813,14.52,35.055,14.52s25.69-5.157,35.056-14.52
			c9.361-9.363,14.52-21.812,14.52-35.055S93.991,23.884,84.629,14.52z M49.574,92.466c-23.65,0-42.89-19.24-42.89-42.891
			c0-23.65,19.24-42.891,42.89-42.891c23.65,0,42.891,19.241,42.891,42.891C92.465,73.226,73.225,92.466,49.574,92.466z"/>
		<polygon  stroke="#4b3939" fill="#4b3939"  points="65.846,14.817 56.934,14.817 56.934,20.61 44.666,20.61 44.666,29.523 44.666,70.073 28.624,70.073 
			28.624,29.523 32.189,29.523 32.189,66.724 41.099,66.724 41.099,20.603 19.711,20.61 19.711,29.523 19.711,78.986 53.578,78.986 
			53.578,29.523 56.934,29.523 56.934,41.999 65.846,41.999 69.174,41.999 69.174,70.073 65.846,70.073 65.846,45.564 
			56.934,45.564 56.934,78.986 78.086,78.986 78.086,33.088 65.846,33.088 65.846,29.523 78.086,29.523 78.086,20.61 65.846,20.61 
					"/>
	</g>
</g>
<g>
</g>
<g>
</g>
<g>
</g>
<g>
</g>
<g>
</g>
<g>
</g>
<g>
</g>
<g>
</g>
<g>
</g>
<g>
</g>
<g>
</g>
<g>
</g>
<g>
</g>
<g>
</g>
<g>
</g>
</svg>
